<?xml version="1.0" encoding="UTF-8" standalone="no"?>
<!DOCTYPE svg PUBLIC "-//W3C//DTD SVG 1.1//EN"
 "http://www.w3.org/Graphics/SVG/1.1/DTD/svg11.dtd">
<!-- Generated by graphviz version 2.42.4 (0)
 -->
<!-- Title: G Pages: 1 -->
<svg width="1325pt" height="355pt"
 viewBox="0.00 0.00 1325.40 355.40" xmlns="http://www.w3.org/2000/svg" xmlns:xlink="http://www.w3.org/1999/xlink">
<g id="graph0" class="graph" transform="scale(1 1) rotate(0) translate(25.2 330.2)">
<title>G</title>
<polygon fill="white" stroke="transparent" points="-25.2,25.2 -25.2,-330.2 1300.2,-330.2 1300.2,25.2 -25.2,25.2"/>
<g id="clust1" class="cluster">
<title>cluster_sources</title>
<path fill="white" stroke="#a8bed0" d="M20,-55C20,-55 129,-55 129,-55 135,-55 141,-61 141,-67 141,-67 141,-179 141,-179 141,-185 135,-191 129,-191 129,-191 20,-191 20,-191 14,-191 8,-185 8,-179 8,-179 8,-67 8,-67 8,-61 14,-55 20,-55"/>
<text text-anchor="middle" x="74.5" y="-175.8" font-family="Arial" font-size="14.00">Fontes</text>
</g>
<g id="clust2" class="cluster">
<title>cluster_ingestion</title>
<path fill="white" stroke="#a8bed0" d="M186,-45C186,-45 488,-45 488,-45 494,-45 500,-51 500,-57 500,-57 500,-181 500,-181 500,-187 494,-193 488,-193 488,-193 186,-193 186,-193 180,-193 174,-187 174,-181 174,-181 174,-57 174,-57 174,-51 180,-45 186,-45"/>
<text text-anchor="middle" x="337" y="-177.8" font-family="Arial" font-size="14.00">Ingestão híbrida</text>
</g>
<g id="clust3" class="cluster">
<title>cluster_medallion</title>
<path fill="white" stroke="#a8bed0" d="M621,-49C621,-49 1062,-49 1062,-49 1068,-49 1074,-55 1074,-61 1074,-61 1074,-124 1074,-124 1074,-130 1068,-136 1062,-136 1062,-136 621,-136 621,-136 615,-136 609,-130 609,-124 609,-124 609,-61 609,-61 609,-55 615,-49 621,-49"/>
<text text-anchor="middle" x="841.5" y="-120.8" font-family="Arial" font-size="14.00">Arquitetura Medalhão</text>
</g>
<g id="clust4" class="cluster">
<title>cluster_consumption</title>
<path fill="white" stroke="#a8bed0" d="M1119,-8C1119,-8 1255,-8 1255,-8 1261,-8 1267,-14 1267,-20 1267,-20 1267,-254 1267,-254 1267,-260 1261,-266 1255,-266 1255,-266 1119,-266 1119,-266 1113,-266 1107,-260 1107,-254 1107,-254 1107,-20 1107,-20 1107,-14 1113,-8 1119,-8"/>
<text text-anchor="middle" x="1187" y="-250.8" font-family="Arial" font-size="14.00">Consumo e operação</text>
</g>
<!-- bd -->
<g id="node1" class="node">
<title>bd</title>
<path fill="#e8f3ff" stroke="#24445c" d="M111,-99C111,-99 38,-99 38,-99 32,-99 26,-93 26,-87 26,-87 26,-75 26,-75 26,-69 32,-63 38,-63 38,-63 111,-63 111,-63 117,-63 123,-69 123,-75 123,-75 123,-87 123,-87 123,-93 117,-99 111,-99"/>
<text text-anchor="middle" x="74.5" y="-84" font-family="Arial" font-size="10.00">Base dos Dados</text>
<text text-anchor="middle" x="74.5" y="-73" font-family="Arial" font-size="10.00">BigQuery público</text>
</g>
<!-- batch -->
<g id="node3" class="node">
<title>batch</title>
<path fill="#fff4d9" stroke="#24445c" d="M300,-100.5C300,-100.5 194,-100.5 194,-100.5 188,-100.5 182,-94.5 182,-88.5 182,-88.5 182,-65.5 182,-65.5 182,-59.5 188,-53.5 194,-53.5 194,-53.5 300,-53.5 300,-53.5 306,-53.5 312,-59.5 312,-65.5 312,-65.5 312,-88.5 312,-88.5 312,-94.5 306,-100.5 300,-100.5"/>
<text text-anchor="middle" x="247" y="-85.5" font-family="Arial" font-size="10.00">Cloud Run Job</text>
<text text-anchor="middle" x="247" y="-74.5" font-family="Arial" font-size="10.00">Python + BigQuery Jobs</text>
<text text-anchor="middle" x="247" y="-63.5" font-family="Arial" font-size="10.00">batch agendado</text>
</g>
<!-- bd&#45;&gt;batch -->
<g id="edge1" class="edge">
<title>bd&#45;&gt;batch</title>
<path fill="none" stroke="#53758c" stroke-width="1.4" d="M123.45,-79.88C139.16,-79.51 156.99,-79.09 174.08,-78.69"/>
<polygon fill="#53758c" stroke="#53758c" stroke-width="1.4" points="174.43,-81.3 181.87,-78.5 174.31,-76.06 174.43,-81.3"/>
</g>
<!-- sim -->
<g id="node2" class="node">
<title>sim</title>
<path fill="#e8f3ff" stroke="#24445c" d="M121,-160C121,-160 28,-160 28,-160 22,-160 16,-154 16,-148 16,-148 16,-136 16,-136 16,-130 22,-124 28,-124 28,-124 121,-124 121,-124 127,-124 133,-130 133,-136 133,-136 133,-148 133,-148 133,-154 127,-160 121,-160"/>
<text text-anchor="middle" x="74.5" y="-145" font-family="Arial" font-size="10.00">Simulador de eventos</text>
<text text-anchor="middle" x="74.5" y="-134" font-family="Arial" font-size="10.00">Python</text>
</g>
<!-- pubsub -->
<g id="node4" class="node">
<title>pubsub</title>
<path fill="#fff4d9" stroke="#24445c" d="M265,-162C265,-162 229,-162 229,-162 223,-162 217,-156 217,-150 217,-150 217,-138 217,-138 217,-132 223,-126 229,-126 229,-126 265,-126 265,-126 271,-126 277,-132 277,-138 277,-138 277,-150 277,-150 277,-156 271,-162 265,-162"/>
<text text-anchor="middle" x="247" y="-141.5" font-family="Arial" font-size="10.00">Pub/Sub</text>
</g>
<!-- sim&#45;&gt;pubsub -->
<g id="edge3" class="edge">
<title>sim&#45;&gt;pubsub</title>
<path fill="none" stroke="#53758c" stroke-width="1.4" d="M133.22,-142.68C158.29,-142.97 186.9,-143.31 209.04,-143.57"/>
<polygon fill="#53758c" stroke="#53758c" stroke-width="1.4" points="209.05,-146.19 216.58,-143.65 209.11,-140.94 209.05,-146.19"/>
</g>
<!-- bronze -->
<g id="node6" class="node">
<title>bronze</title>
<path fill="#ead6c5" stroke="#24445c" d="M739,-104.5C739,-104.5 629,-104.5 629,-104.5 623,-104.5 617,-98.5 617,-92.5 617,-92.5 617,-69.5 617,-69.5 617,-63.5 623,-57.5 629,-57.5 629,-57.5 739,-57.5 739,-57.5 745,-57.5 751,-63.5 751,-69.5 751,-69.5 751,-92.5 751,-92.5 751,-98.5 745,-104.5 739,-104.5"/>
<text text-anchor="middle" x="684" y="-89.5" font-family="Arial" font-size="10.00">BRONZE</text>
<text text-anchor="middle" x="684" y="-78.5" font-family="Arial" font-size="10.00">BigQuery + GCS Parquet</text>
<text text-anchor="middle" x="684" y="-67.5" font-family="Arial" font-size="10.00">histórico bruto</text>
</g>
<!-- batch&#45;&gt;bronze -->
<g id="edge2" class="edge">
<title>batch&#45;&gt;bronze</title>
<path fill="none" stroke="#53758c" stroke-width="1.4" d="M312.19,-77.59C391.37,-78.32 525.71,-79.55 609.11,-80.32"/>
<polygon fill="#53758c" stroke="#53758c" stroke-width="1.4" points="609.24,-82.95 616.77,-80.39 609.29,-77.7 609.24,-82.95"/>
</g>
<!-- monitor -->
<g id="node11" class="node">
<title>monitor</title>
<path fill="#fbe7ea" stroke="#24445c" d="M1246,-174C1246,-174 1128,-174 1128,-174 1122,-174 1116,-168 1116,-162 1116,-162 1116,-150 1116,-150 1116,-144 1122,-138 1128,-138 1128,-138 1246,-138 1246,-138 1252,-138 1258,-144 1258,-150 1258,-150 1258,-162 1258,-162 1258,-168 1252,-174 1246,-174"/>
<text text-anchor="middle" x="1187" y="-159" font-family="Arial" font-size="10.00">Cloud Monitoring + Logging</text>
<text text-anchor="middle" x="1187" y="-148" font-family="Arial" font-size="10.00">qualidade + alertas</text>
</g>
<!-- batch&#45;&gt;monitor -->
<g id="edge11" class="edge">
<title>batch&#45;&gt;monitor</title>
<path fill="none" stroke="#53758c" stroke-width="1.4" stroke-dasharray="5,2" d="M293.39,-53.41C328.49,-37.35 378.82,-19 425.5,-19 425.5,-19 425.5,-19 938,-19 999.38,-19 1026.41,-4.24 1074,-43 1104.78,-68.07 1078.71,-98.15 1107,-126 1109.94,-128.89 1113.19,-131.52 1116.64,-133.89"/>
<polygon fill="#53758c" stroke="#53758c" stroke-width="1.4" points="1115.3,-136.15 1123.05,-137.89 1118.08,-131.69 1115.3,-136.15"/>
</g>
<!-- dataflow -->
<g id="node5" class="node">
<title>dataflow</title>
<path fill="#fff4d9" stroke="#24445c" d="M480,-162C480,-162 373,-162 373,-162 367,-162 361,-156 361,-150 361,-150 361,-138 361,-138 361,-132 367,-126 373,-126 373,-126 480,-126 480,-126 486,-126 492,-132 492,-138 492,-138 492,-150 492,-150 492,-156 486,-162 480,-162"/>
<text text-anchor="middle" x="426.5" y="-147" font-family="Arial" font-size="10.00">Dataflow / Apache Beam</text>
<text text-anchor="middle" x="426.5" y="-136" font-family="Arial" font-size="10.00">validação + DLQ</text>
</g>
<!-- pubsub&#45;&gt;dataflow -->
<g id="edge4" class="edge">
<title>pubsub&#45;&gt;dataflow</title>
<path fill="none" stroke="#53758c" stroke-width="1.4" d="M277.31,-144C297.92,-144 326.45,-144 352.98,-144"/>
<polygon fill="#53758c" stroke="#53758c" stroke-width="1.4" points="353.27,-146.63 360.77,-144 353.27,-141.38 353.27,-146.63"/>
</g>
<!-- dataflow&#45;&gt;bronze -->
<g id="edge5" class="edge">
<title>dataflow&#45;&gt;bronze</title>
<path fill="none" stroke="#53758c" stroke-width="1.4" d="M492.28,-144.08C523.31,-142.62 560.66,-138.66 593,-129 609.04,-124.21 625.51,-116.41 639.9,-108.48"/>
<polygon fill="#53758c" stroke="#53758c" stroke-width="1.4" points="641.54,-110.57 646.78,-104.59 638.96,-106 641.54,-110.57"/>
</g>
<!-- dataflow&#45;&gt;bronze -->
<g id="edge6" class="edge">
<title>dataflow&#45;&gt;bronze</title>
<path fill="none" stroke="#53758c" stroke-width="1.4" d="M486.85,-125.96C496.56,-123.19 506.54,-120.43 516,-118 546.36,-110.19 580.08,-102.53 609.22,-96.22"/>
<polygon fill="#53758c" stroke="#53758c" stroke-width="1.4" points="610.14,-98.71 616.92,-94.56 609.04,-93.57 610.14,-98.71"/>
<text text-anchor="middle" x="554.5" y="-120.8" font-family="Arial" font-size="9.00">válidos / rejeitados</text>
</g>
<!-- dataflow&#45;&gt;monitor -->
<g id="edge12" class="edge">
<title>dataflow&#45;&gt;monitor</title>
<path fill="none" stroke="#53758c" stroke-width="1.4" stroke-dasharray="5,2" d="M451.39,-162.16C494.95,-193.41 591.24,-254 683,-254 683,-254 683,-254 938,-254 1018.8,-254 1031.84,-216.65 1107,-187 1115.35,-183.71 1124.2,-180.22 1132.84,-176.83"/>
<polygon fill="#53758c" stroke="#53758c" stroke-width="1.4" points="1134.02,-179.19 1140.04,-174 1132.1,-174.3 1134.02,-179.19"/>
</g>
<!-- finops -->
<g id="node12" class="node">
<title>finops</title>
<path fill="#fbe7ea" stroke="#24445c" d="M1247,-235C1247,-235 1127,-235 1127,-235 1121,-235 1115,-229 1115,-223 1115,-223 1115,-211 1115,-211 1115,-205 1121,-199 1127,-199 1127,-199 1247,-199 1247,-199 1253,-199 1259,-205 1259,-211 1259,-211 1259,-223 1259,-223 1259,-229 1253,-235 1247,-235"/>
<text text-anchor="middle" x="1187" y="-220" font-family="Arial" font-size="10.00">Budgets + labels + lifecycle</text>
<text text-anchor="middle" x="1187" y="-209" font-family="Arial" font-size="10.00">FinOps</text>
</g>
<!-- dataflow&#45;&gt;finops -->
<g id="edge15" class="edge">
<title>dataflow&#45;&gt;finops</title>
<path fill="none" stroke="#53758c" stroke-width="1.4" stroke-dasharray="5,2" d="M440.31,-162.02C456.04,-183.01 484.53,-217.53 516,-239 581.93,-283.97 603.19,-305 683,-305 683,-305 683,-305 1015,-305 1071.66,-305 1128.33,-266.34 1160.11,-240.26"/>
<polygon fill="#53758c" stroke="#53758c" stroke-width="1.4" points="1162.06,-242.06 1166.13,-235.23 1158.69,-238.03 1162.06,-242.06"/>
</g>
<!-- silver -->
<g id="node7" class="node">
<title>silver</title>
<path fill="#e3e8ed" stroke="#24445c" d="M901,-104.5C901,-104.5 812,-104.5 812,-104.5 806,-104.5 800,-98.5 800,-92.5 800,-92.5 800,-69.5 800,-69.5 800,-63.5 806,-57.5 812,-57.5 812,-57.5 901,-57.5 901,-57.5 907,-57.5 913,-63.5 913,-69.5 913,-69.5 913,-92.5 913,-92.5 913,-98.5 907,-104.5 901,-104.5"/>
<text text-anchor="middle" x="856.5" y="-89.5" font-family="Arial" font-size="10.00">SILVER</text>
<text text-anchor="middle" x="856.5" y="-78.5" font-family="Arial" font-size="10.00">Dataform</text>
<text text-anchor="middle" x="856.5" y="-67.5" font-family="Arial" font-size="10.00">limpeza + integração</text>
</g>
<!-- bronze&#45;&gt;silver -->
<g id="edge7" class="edge">
<title>bronze&#45;&gt;silver</title>
<path fill="none" stroke="#53758c" stroke-width="1.4" d="M751.41,-81C764.77,-81 778.79,-81 792.05,-81"/>
<polygon fill="#53758c" stroke="#53758c" stroke-width="1.4" points="792.26,-83.63 799.76,-81 792.26,-78.38 792.26,-83.63"/>
</g>
<!-- bronze&#45;&gt;finops -->
<g id="edge14" class="edge">
<title>bronze&#45;&gt;finops</title>
<path fill="none" stroke="#53758c" stroke-width="1.4" stroke-dasharray="5,2" d="M751.12,-102.32C767.07,-107.29 784.11,-112.46 800,-117 905.91,-147.28 1029.28,-178.55 1107.5,-197.88"/>
<polygon fill="#53758c" stroke="#53758c" stroke-width="1.4" points="1107.01,-200.47 1114.92,-199.72 1108.27,-195.37 1107.01,-200.47"/>
</g>
<!-- gold -->
<g id="node8" class="node">
<title>gold</title>
<path fill="#f4d78b" stroke="#24445c" d="M1054,-104.5C1054,-104.5 974,-104.5 974,-104.5 968,-104.5 962,-98.5 962,-92.5 962,-92.5 962,-69.5 962,-69.5 962,-63.5 968,-57.5 974,-57.5 974,-57.5 1054,-57.5 1054,-57.5 1060,-57.5 1066,-63.5 1066,-69.5 1066,-69.5 1066,-92.5 1066,-92.5 1066,-98.5 1060,-104.5 1054,-104.5"/>
<text text-anchor="middle" x="1014" y="-89.5" font-family="Arial" font-size="10.00">GOLD</text>
<text text-anchor="middle" x="1014" y="-78.5" font-family="Arial" font-size="10.00">Dataform</text>
<text text-anchor="middle" x="1014" y="-67.5" font-family="Arial" font-size="10.00">modelos analíticos</text>
</g>
<!-- silver&#45;&gt;gold -->
<g id="edge8" class="edge">
<title>silver&#45;&gt;gold</title>
<path fill="none" stroke="#53758c" stroke-width="1.4" d="M913.2,-81C926.46,-81 940.65,-81 954.05,-81"/>
<polygon fill="#53758c" stroke="#53758c" stroke-width="1.4" points="954.33,-83.63 961.83,-81 954.33,-78.38 954.33,-83.63"/>
</g>
<!-- silver&#45;&gt;monitor -->
<g id="edge13" class="edge">
<title>silver&#45;&gt;monitor</title>
<path fill="none" stroke="#53758c" stroke-width="1.4" stroke-dasharray="5,2" d="M913.13,-102C928.78,-107.41 945.93,-112.86 962,-117 1009.96,-129.35 1064.72,-138.96 1108.08,-145.56"/>
<polygon fill="#53758c" stroke="#53758c" stroke-width="1.4" points="1107.96,-148.19 1115.77,-146.71 1108.74,-143 1107.96,-148.19"/>
<text text-anchor="middle" x="1014" y="-142.8" font-family="Arial" font-size="9.00">assertions</text>
</g>
<!-- looker -->
<g id="node9" class="node">
<title>looker</title>
<path fill="#e1f4e8" stroke="#24445c" d="M1216.5,-113C1216.5,-113 1157.5,-113 1157.5,-113 1151.5,-113 1145.5,-107 1145.5,-101 1145.5,-101 1145.5,-89 1145.5,-89 1145.5,-83 1151.5,-77 1157.5,-77 1157.5,-77 1216.5,-77 1216.5,-77 1222.5,-77 1228.5,-83 1228.5,-89 1228.5,-89 1228.5,-101 1228.5,-101 1228.5,-107 1222.5,-113 1216.5,-113"/>
<text text-anchor="middle" x="1187" y="-98" font-family="Arial" font-size="10.00">Looker Studio</text>
<text text-anchor="middle" x="1187" y="-87" font-family="Arial" font-size="10.00">dashboards</text>
</g>
<!-- gold&#45;&gt;looker -->
<g id="edge9" class="edge">
<title>gold&#45;&gt;looker</title>
<path fill="none" stroke="#53758c" stroke-width="1.4" d="M1066.31,-85.2C1088.92,-87.05 1115.36,-89.22 1137.63,-91.04"/>
<polygon fill="#53758c" stroke="#53758c" stroke-width="1.4" points="1137.63,-93.67 1145.32,-91.67 1138.06,-88.44 1137.63,-93.67"/>
</g>
<!-- ml -->
<g id="node10" class="node">
<title>ml</title>
<path fill="#e1f4e8" stroke="#24445c" d="M1239,-52C1239,-52 1135,-52 1135,-52 1129,-52 1123,-46 1123,-40 1123,-40 1123,-28 1123,-28 1123,-22 1129,-16 1135,-16 1135,-16 1239,-16 1239,-16 1245,-16 1251,-22 1251,-28 1251,-28 1251,-40 1251,-40 1251,-46 1245,-52 1239,-52"/>
<text text-anchor="middle" x="1187" y="-37" font-family="Arial" font-size="10.00">BigQuery ML / Vertex AI</text>
<text text-anchor="middle" x="1187" y="-26" font-family="Arial" font-size="10.00">predição e clusters</text>
</g>
<!-- gold&#45;&gt;ml -->
<g id="edge10" class="edge">
<title>gold&#45;&gt;ml</title>
<path fill="none" stroke="#53758c" stroke-width="1.4" d="M1066.31,-66.9C1081.75,-62.65 1098.97,-57.92 1115.43,-53.4"/>
<polygon fill="#53758c" stroke="#53758c" stroke-width="1.4" points="1116.4,-55.85 1122.93,-51.33 1115,-50.79 1116.4,-55.85"/>
</g>
</g>
</svg>
