<?xml version="1.0" encoding="UTF-8" standalone="no"?>
<!DOCTYPE svg PUBLIC "-//W3C//DTD SVG 1.1//EN"
 "http://www.w3.org/Graphics/SVG/1.1/DTD/svg11.dtd">
<!-- Generated by graphviz version 2.42.4 (0)
 -->
<!-- Title: G Pages: 1 -->
<svg width="1070pt" height="328pt"
 viewBox="0.00 0.00 1070.20 328.20" xmlns="http://www.w3.org/2000/svg" xmlns:xlink="http://www.w3.org/1999/xlink">
<g id="graph0" class="graph" transform="scale(1 1) rotate(0) translate(21.6 306.6)">
<title>G</title>
<polygon fill="white" stroke="transparent" points="-21.6,21.6 -21.6,-306.6 1048.6,-306.6 1048.6,21.6 -21.6,21.6"/>
<!-- dim -->
<g id="node1" class="node">
<title>dim</title>
<polygon fill="#e3e8ed" stroke="#24445c" points="88.5,-186.5 88.5,-222.5 448.5,-222.5 448.5,-186.5 88.5,-186.5"/>
<text text-anchor="middle" x="138.5" y="-202.3" font-family="Arial" font-size="9.00">silver.dim_municipio</text>
<polyline fill="none" stroke="#24445c" points="188.5,-186.5 188.5,-222.5 "/>
<text text-anchor="middle" x="230" y="-202.3" font-family="Arial" font-size="9.00">id_municipio PK</text>
<polyline fill="none" stroke="#24445c" points="271.5,-186.5 271.5,-222.5 "/>
<text text-anchor="middle" x="314" y="-202.3" font-family="Arial" font-size="9.00">nome_municipio</text>
<polyline fill="none" stroke="#24445c" points="356.5,-186.5 356.5,-222.5 "/>
<text text-anchor="middle" x="381" y="-202.3" font-family="Arial" font-size="9.00">sigla_uf</text>
<polyline fill="none" stroke="#24445c" points="405.5,-186.5 405.5,-222.5 "/>
<text text-anchor="middle" x="427" y="-202.3" font-family="Arial" font-size="9.00">regiao</text>
</g>
<!-- gold -->
<g id="node6" class="node">
<title>gold</title>
<polygon fill="#f4d78b" stroke="#24445c" points="584,-155.5 584,-191.5 1027,-191.5 1027,-155.5 584,-155.5"/>
<text text-anchor="middle" x="644" y="-171.3" font-family="Arial" font-size="9.00">gold.indicador_municipio</text>
<polyline fill="none" stroke="#24445c" points="704,-155.5 704,-191.5 "/>
<text text-anchor="middle" x="768" y="-171.3" font-family="Arial" font-size="9.00">resultado + meta + território</text>
<polyline fill="none" stroke="#24445c" points="832,-155.5 832,-191.5 "/>
<text text-anchor="middle" x="861" y="-171.3" font-family="Arial" font-size="9.00">gap_meta</text>
<polyline fill="none" stroke="#24445c" points="890,-155.5 890,-191.5 "/>
<text text-anchor="middle" x="923" y="-171.3" font-family="Arial" font-size="9.00">status_meta</text>
<polyline fill="none" stroke="#24445c" points="956,-155.5 956,-191.5 "/>
<text text-anchor="middle" x="991.5" y="-171.3" font-family="Arial" font-size="9.00">origem_dado</text>
</g>
<!-- dim&#45;&gt;gold -->
<g id="edge1" class="edge">
<title>dim&#45;&gt;gold</title>
<path fill="none" stroke="#53758c" stroke-width="1.1" d="M448.76,-194.11C489.92,-191.73 534.22,-189.16 577.11,-186.68"/>
<polygon fill="#53758c" stroke="#53758c" stroke-width="1.1" points="577.35,-188.94 583.7,-186.29 577.08,-184.4 577.35,-188.94"/>
</g>
<!-- features -->
<g id="node7" class="node">
<title>features</title>
<polygon fill="#f4d78b" stroke="#24445c" points="626,-62.5 626,-98.5 985,-98.5 985,-62.5 626,-62.5"/>
<text text-anchor="middle" x="668.5" y="-78.3" font-family="Arial" font-size="9.00">gold.features_ml</text>
<polyline fill="none" stroke="#24445c" points="711,-62.5 711,-98.5 "/>
<text text-anchor="middle" x="763" y="-78.3" font-family="Arial" font-size="9.00">agregados de alunos</text>
<polyline fill="none" stroke="#24445c" points="815,-62.5 815,-98.5 "/>
<text text-anchor="middle" x="835" y="-78.3" font-family="Arial" font-size="9.00">target</text>
<polyline fill="none" stroke="#24445c" points="855,-62.5 855,-98.5 "/>
<text text-anchor="middle" x="875.5" y="-78.3" font-family="Arial" font-size="9.00">metas</text>
<polyline fill="none" stroke="#24445c" points="896,-62.5 896,-98.5 "/>
<text text-anchor="middle" x="940.5" y="-78.3" font-family="Arial" font-size="9.00">contexto territorial</text>
</g>
<!-- dim&#45;&gt;features -->
<g id="edge5" class="edge">
<title>dim&#45;&gt;features</title>
<path fill="none" stroke="#53758c" stroke-width="1.1" d="M448.83,-195.45C478.83,-190.63 509.21,-183.62 537,-173.5 560.51,-164.94 561.24,-152.9 584,-142.5 624,-124.22 670.58,-110.17 710.6,-100.1"/>
<polygon fill="#53758c" stroke="#53758c" stroke-width="1.1" points="711.21,-102.29 716.97,-98.52 710.11,-97.88 711.21,-102.29"/>
</g>
<!-- res -->
<g id="node2" class="node">
<title>res</title>
<polygon fill="#e3e8ed" stroke="#24445c" points="2.5,-124.5 2.5,-160.5 534.5,-160.5 534.5,-124.5 2.5,-124.5"/>
<text text-anchor="middle" x="64" y="-140.3" font-family="Arial" font-size="9.00">silver.municipio_resultado</text>
<polyline fill="none" stroke="#24445c" points="125.5,-124.5 125.5,-160.5 "/>
<text text-anchor="middle" x="209" y="-140.3" font-family="Arial" font-size="9.00">ano + id_municipio + serie + rede PK</text>
<polyline fill="none" stroke="#24445c" points="292.5,-124.5 292.5,-160.5 "/>
<text text-anchor="middle" x="339.5" y="-140.3" font-family="Arial" font-size="9.00">taxa_alfabetizacao</text>
<polyline fill="none" stroke="#24445c" points="386.5,-124.5 386.5,-160.5 "/>
<text text-anchor="middle" x="431" y="-140.3" font-family="Arial" font-size="9.00">media_portugues</text>
<polyline fill="none" stroke="#24445c" points="475.5,-124.5 475.5,-160.5 "/>
<text text-anchor="middle" x="505" y="-140.3" font-family="Arial" font-size="9.00">níveis 0–8</text>
</g>
<!-- res&#45;&gt;gold -->
<g id="edge2" class="edge">
<title>res&#45;&gt;gold</title>
<path fill="none" stroke="#53758c" stroke-width="1.1" d="M534.65,-157.86C548.76,-158.68 562.88,-159.5 576.86,-160.31"/>
<polygon fill="#53758c" stroke="#53758c" stroke-width="1.1" points="577.08,-162.6 583.7,-160.71 577.35,-158.06 577.08,-162.6"/>
</g>
<!-- res&#45;&gt;features -->
<g id="edge6" class="edge">
<title>res&#45;&gt;features</title>
<path fill="none" stroke="#53758c" stroke-width="1.1" d="M424.96,-124.48C493.26,-116.57 573.44,-107.28 642.47,-99.28"/>
<polygon fill="#53758c" stroke="#53758c" stroke-width="1.1" points="642.92,-101.52 649.11,-98.51 642.39,-97 642.92,-101.52"/>
</g>
<!-- meta -->
<g id="node3" class="node">
<title>meta</title>
<polygon fill="#e3e8ed" stroke="#24445c" points="0,-62.5 0,-98.5 537,-98.5 537,-62.5 0,-62.5"/>
<text text-anchor="middle" x="52.5" y="-78.3" font-family="Arial" font-size="9.00">silver.meta_municipio</text>
<polyline fill="none" stroke="#24445c" points="105,-62.5 105,-98.5 "/>
<text text-anchor="middle" x="221" y="-78.3" font-family="Arial" font-size="9.00">ano_resultado + ano_meta + id_municipio + rede PK</text>
<polyline fill="none" stroke="#24445c" points="337,-62.5 337,-98.5 "/>
<text text-anchor="middle" x="385.5" y="-78.3" font-family="Arial" font-size="9.00">meta_alfabetizacao</text>
<polyline fill="none" stroke="#24445c" points="434,-62.5 434,-98.5 "/>
<text text-anchor="middle" x="467.5" y="-78.3" font-family="Arial" font-size="9.00">participacao</text>
<polyline fill="none" stroke="#24445c" points="501,-62.5 501,-98.5 "/>
<text text-anchor="middle" x="519" y="-78.3" font-family="Arial" font-size="9.00">nivel</text>
</g>
<!-- meta&#45;&gt;gold -->
<g id="edge3" class="edge">
<title>meta&#45;&gt;gold</title>
<path fill="none" stroke="#53758c" stroke-width="1.1" d="M449.4,-98.54C478.76,-102.29 508.78,-106.61 537,-111.5 602.67,-122.88 676.4,-140.32 729.8,-153.81"/>
<polygon fill="#53758c" stroke="#53758c" stroke-width="1.1" points="729.35,-156.04 736.21,-155.44 730.47,-151.63 729.35,-156.04"/>
</g>
<!-- meta&#45;&gt;features -->
<g id="edge7" class="edge">
<title>meta&#45;&gt;features</title>
<path fill="none" stroke="#53758c" stroke-width="1.1" d="M537.39,-80.5C565.06,-80.5 592.72,-80.5 619.19,-80.5"/>
<polygon fill="#53758c" stroke="#53758c" stroke-width="1.1" points="619.4,-82.78 625.9,-80.5 619.4,-78.23 619.4,-82.78"/>
</g>
<!-- evt -->
<g id="node4" class="node">
<title>evt</title>
<polygon fill="#e3e8ed" stroke="#24445c" points="36,-248.5 36,-284.5 501,-284.5 501,-248.5 36,-248.5"/>
<text text-anchor="middle" x="113" y="-264.3" font-family="Arial" font-size="9.00">silver.eventos_indicador_tratados</text>
<polyline fill="none" stroke="#24445c" points="190,-248.5 190,-284.5 "/>
<text text-anchor="middle" x="225.5" y="-264.3" font-family="Arial" font-size="9.00">id_evento PK</text>
<polyline fill="none" stroke="#24445c" points="261,-248.5 261,-284.5 "/>
<text text-anchor="middle" x="295.5" y="-264.3" font-family="Arial" font-size="9.00">id_municipio</text>
<polyline fill="none" stroke="#24445c" points="330,-248.5 330,-284.5 "/>
<text text-anchor="middle" x="346" y="-264.3" font-family="Arial" font-size="9.00">ano</text>
<polyline fill="none" stroke="#24445c" points="362,-248.5 362,-284.5 "/>
<text text-anchor="middle" x="379" y="-264.3" font-family="Arial" font-size="9.00">taxa</text>
<polyline fill="none" stroke="#24445c" points="396,-248.5 396,-284.5 "/>
<text text-anchor="middle" x="414.5" y="-264.3" font-family="Arial" font-size="9.00">meta</text>
<polyline fill="none" stroke="#24445c" points="433,-248.5 433,-284.5 "/>
<text text-anchor="middle" x="467" y="-264.3" font-family="Arial" font-size="9.00">data_evento</text>
</g>
<!-- evt&#45;&gt;gold -->
<g id="edge4" class="edge">
<title>evt&#45;&gt;gold</title>
<path fill="none" stroke="#53758c" stroke-width="1.1" d="M449.4,-248.46C478.76,-244.71 508.78,-240.39 537,-235.5 602.67,-224.12 676.4,-206.68 729.8,-193.19"/>
<polygon fill="#53758c" stroke="#53758c" stroke-width="1.1" points="730.47,-195.37 736.21,-191.56 729.35,-190.96 730.47,-195.37"/>
</g>
<!-- alunos -->
<g id="node5" class="node">
<title>alunos</title>
<polygon fill="#e3e8ed" stroke="#24445c" points="41,-0.5 41,-36.5 496,-36.5 496,-0.5 41,-0.5"/>
<text text-anchor="middle" x="94" y="-16.3" font-family="Arial" font-size="9.00">silver.alunos_tratados</text>
<polyline fill="none" stroke="#24445c" points="147,-0.5 147,-36.5 "/>
<text text-anchor="middle" x="193" y="-16.3" font-family="Arial" font-size="9.00">ano + id_aluno PK</text>
<polyline fill="none" stroke="#24445c" points="239,-0.5 239,-36.5 "/>
<text text-anchor="middle" x="273.5" y="-16.3" font-family="Arial" font-size="9.00">id_municipio</text>
<polyline fill="none" stroke="#24445c" points="308,-0.5 308,-36.5 "/>
<text text-anchor="middle" x="340" y="-16.3" font-family="Arial" font-size="9.00">proficiencia</text>
<polyline fill="none" stroke="#24445c" points="372,-0.5 372,-36.5 "/>
<text text-anchor="middle" x="415.5" y="-16.3" font-family="Arial" font-size="9.00">alfabetizado_flag</text>
<polyline fill="none" stroke="#24445c" points="459,-0.5 459,-36.5 "/>
<text text-anchor="middle" x="477.5" y="-16.3" font-family="Arial" font-size="9.00">peso</text>
</g>
<!-- alunos&#45;&gt;features -->
<g id="edge8" class="edge">
<title>alunos&#45;&gt;features</title>
<path fill="none" stroke="#53758c" stroke-width="1.1" d="M424.96,-36.52C493.26,-44.43 573.44,-53.72 642.47,-61.72"/>
<polygon fill="#53758c" stroke="#53758c" stroke-width="1.1" points="642.39,-64 649.11,-62.49 642.92,-59.48 642.39,-64"/>
</g>
</g>
</svg>
