<?xml version="1.0" encoding="UTF-8" standalone="no"?>
<!DOCTYPE svg PUBLIC "-//W3C//DTD SVG 1.1//EN"
 "http://www.w3.org/Graphics/SVG/1.1/DTD/svg11.dtd">
<!-- Generated by graphviz version 2.42.4 (0)
 -->
<!-- Title: G Pages: 1 -->
<svg width="635pt" height="555pt"
 viewBox="0.00 0.00 634.70 555.20" xmlns="http://www.w3.org/2000/svg" xmlns:xlink="http://www.w3.org/1999/xlink">
<g id="graph0" class="graph" transform="scale(1 1) rotate(0) translate(21.6 533.6)">
<title>G</title>
<polygon fill="white" stroke="transparent" points="-21.6,21.6 -21.6,-533.6 613.1,-533.6 613.1,21.6 -21.6,21.6"/>
<!-- a -->
<g id="node1" class="node">
<title>a</title>
<path fill="#e8f3ff" stroke="#24445c" d="M447,-512C447,-512 182,-512 182,-512 176,-512 170,-506 170,-500 170,-500 170,-488 170,-488 170,-482 176,-476 182,-476 182,-476 447,-476 447,-476 453,-476 459,-482 459,-488 459,-488 459,-500 459,-500 459,-506 453,-512 447,-512"/>
<text text-anchor="middle" x="314.5" y="-491.5" font-family="Arial" font-size="10.00">1. Terraform cria APIs, IAM, datasets, bucket, tópico e tabelas</text>
</g>
<!-- b -->
<g id="node2" class="node">
<title>b</title>
<path fill="#ead6c5" stroke="#24445c" d="M311,-376C311,-376 12,-376 12,-376 6,-376 0,-370 0,-364 0,-364 0,-352 0,-352 0,-346 6,-340 12,-340 12,-340 311,-340 311,-340 317,-340 323,-346 323,-352 323,-352 323,-364 323,-364 323,-370 317,-376 311,-376"/>
<text text-anchor="middle" x="161.5" y="-355.5" font-family="Arial" font-size="10.00">2. Cloud Run executa batch, grava Bronze/Parquet e aciona Dataform</text>
</g>
<!-- a&#45;&gt;b -->
<g id="edge1" class="edge">
<title>a&#45;&gt;b</title>
<path fill="none" stroke="#53758c" stroke-width="1.3" d="M294.81,-475.76C267.15,-451.53 216.8,-407.44 186.52,-380.92"/>
<polygon fill="#53758c" stroke="#53758c" stroke-width="1.3" points="187.99,-378.95 181.11,-376.18 184.77,-382.63 187.99,-378.95"/>
</g>
<!-- c -->
<g id="node3" class="node">
<title>c</title>
<path fill="#fff4d9" stroke="#24445c" d="M506,-444C506,-444 341,-444 341,-444 335,-444 329,-438 329,-432 329,-432 329,-420 329,-420 329,-414 335,-408 341,-408 341,-408 506,-408 506,-408 512,-408 518,-414 518,-420 518,-420 518,-432 518,-432 518,-438 512,-444 506,-444"/>
<text text-anchor="middle" x="423.5" y="-423.5" font-family="Arial" font-size="10.00">3. Simulador publica JSON no Pub/Sub</text>
</g>
<!-- a&#45;&gt;c -->
<g id="edge3" class="edge">
<title>a&#45;&gt;c</title>
<path fill="none" stroke="#53758c" stroke-width="1.3" d="M342.85,-475.83C356.98,-467.28 374.19,-456.86 389.07,-447.85"/>
<polygon fill="#53758c" stroke="#53758c" stroke-width="1.3" points="390.57,-449.8 395.29,-444.08 388.03,-445.61 390.57,-449.8"/>
</g>
<!-- f -->
<g id="node6" class="node">
<title>f</title>
<path fill="#e3e8ed" stroke="#24445c" d="M398.5,-240C398.5,-240 230.5,-240 230.5,-240 224.5,-240 218.5,-234 218.5,-228 218.5,-228 218.5,-216 218.5,-216 218.5,-210 224.5,-204 230.5,-204 230.5,-204 398.5,-204 398.5,-204 404.5,-204 410.5,-210 410.5,-216 410.5,-216 410.5,-228 410.5,-228 410.5,-234 404.5,-240 398.5,-240"/>
<text text-anchor="middle" x="314.5" y="-219.5" font-family="Arial" font-size="10.00">6. Dataform transforma Bronze → Silver</text>
</g>
<!-- b&#45;&gt;f -->
<g id="edge2" class="edge">
<title>b&#45;&gt;f</title>
<path fill="none" stroke="#53758c" stroke-width="1.3" d="M181.19,-339.76C208.85,-315.53 259.2,-271.44 289.48,-244.92"/>
<polygon fill="#53758c" stroke="#53758c" stroke-width="1.3" points="291.23,-246.63 294.89,-240.18 288.01,-242.95 291.23,-246.63"/>
</g>
<!-- d -->
<g id="node4" class="node">
<title>d</title>
<path fill="#fff4d9" stroke="#24445c" d="M579.5,-376C579.5,-376 357.5,-376 357.5,-376 351.5,-376 345.5,-370 345.5,-364 345.5,-364 345.5,-352 345.5,-352 345.5,-346 351.5,-340 357.5,-340 357.5,-340 579.5,-340 579.5,-340 585.5,-340 591.5,-346 591.5,-352 591.5,-352 591.5,-364 591.5,-364 591.5,-370 585.5,-376 579.5,-376"/>
<text text-anchor="middle" x="468.5" y="-355.5" font-family="Arial" font-size="10.00">4. Dataflow valida esquema, faixa, UF, chave e data</text>
</g>
<!-- c&#45;&gt;d -->
<g id="edge4" class="edge">
<title>c&#45;&gt;d</title>
<path fill="none" stroke="#53758c" stroke-width="1.3" d="M435.32,-407.66C440.55,-399.99 446.78,-390.85 452.43,-382.58"/>
<polygon fill="#53758c" stroke="#53758c" stroke-width="1.3" points="454.68,-383.62 456.6,-376.45 450.63,-380.86 454.68,-383.62"/>
</g>
<!-- e -->
<g id="node5" class="node">
<title>e</title>
<path fill="#ead6c5" stroke="#24445c" d="M545.5,-308C545.5,-308 317.5,-308 317.5,-308 311.5,-308 305.5,-302 305.5,-296 305.5,-296 305.5,-284 305.5,-284 305.5,-278 311.5,-272 317.5,-272 317.5,-272 545.5,-272 545.5,-272 551.5,-272 557.5,-278 557.5,-284 557.5,-284 557.5,-296 557.5,-296 557.5,-302 551.5,-308 545.5,-308"/>
<text text-anchor="middle" x="431.5" y="-287.5" font-family="Arial" font-size="10.00">5. Eventos válidos → Bronze | inválidos → dead&#45;letter</text>
</g>
<!-- d&#45;&gt;e -->
<g id="edge5" class="edge">
<title>d&#45;&gt;e</title>
<path fill="none" stroke="#53758c" stroke-width="1.3" d="M458.78,-339.66C454.48,-331.99 449.36,-322.85 444.72,-314.58"/>
<polygon fill="#53758c" stroke="#53758c" stroke-width="1.3" points="446.85,-313.36 441.28,-308.45 442.57,-315.76 446.85,-313.36"/>
</g>
<!-- e&#45;&gt;f -->
<g id="edge6" class="edge">
<title>e&#45;&gt;f</title>
<path fill="none" stroke="#53758c" stroke-width="1.3" d="M401.07,-271.83C385.76,-263.2 367.1,-252.67 351.03,-243.61"/>
<polygon fill="#53758c" stroke="#53758c" stroke-width="1.3" points="352.08,-241.39 344.78,-240.08 349.68,-245.66 352.08,-241.39"/>
</g>
<!-- g -->
<g id="node7" class="node">
<title>g</title>
<path fill="#fbe7ea" stroke="#24445c" d="M444.5,-172C444.5,-172 184.5,-172 184.5,-172 178.5,-172 172.5,-166 172.5,-160 172.5,-160 172.5,-148 172.5,-148 172.5,-142 178.5,-136 184.5,-136 184.5,-136 444.5,-136 444.5,-136 450.5,-136 456.5,-142 456.5,-148 456.5,-148 456.5,-160 456.5,-160 456.5,-166 450.5,-172 444.5,-172"/>
<text text-anchor="middle" x="314.5" y="-151.5" font-family="Arial" font-size="10.00">7. Assertions e script de qualidade bloqueiam inconsistências</text>
</g>
<!-- f&#45;&gt;g -->
<g id="edge7" class="edge">
<title>f&#45;&gt;g</title>
<path fill="none" stroke="#53758c" stroke-width="1.3" d="M314.5,-203.66C314.5,-196.29 314.5,-187.57 314.5,-179.55"/>
<polygon fill="#53758c" stroke="#53758c" stroke-width="1.3" points="316.95,-179.45 314.5,-172.45 312.05,-179.45 316.95,-179.45"/>
</g>
<!-- h -->
<g id="node8" class="node">
<title>h</title>
<path fill="#f4d78b" stroke="#24445c" d="M450.5,-104C450.5,-104 178.5,-104 178.5,-104 172.5,-104 166.5,-98 166.5,-92 166.5,-92 166.5,-80 166.5,-80 166.5,-74 172.5,-68 178.5,-68 178.5,-68 450.5,-68 450.5,-68 456.5,-68 462.5,-74 462.5,-80 462.5,-80 462.5,-92 462.5,-92 462.5,-98 456.5,-104 450.5,-104"/>
<text text-anchor="middle" x="314.5" y="-83.5" font-family="Arial" font-size="10.00">8. Dataform publica Gold: metas, rankings, séries e features ML</text>
</g>
<!-- g&#45;&gt;h -->
<g id="edge8" class="edge">
<title>g&#45;&gt;h</title>
<path fill="none" stroke="#53758c" stroke-width="1.3" d="M314.5,-135.66C314.5,-128.29 314.5,-119.57 314.5,-111.55"/>
<polygon fill="#53758c" stroke="#53758c" stroke-width="1.3" points="316.95,-111.45 314.5,-104.45 312.05,-111.45 316.95,-111.45"/>
</g>
<!-- i -->
<g id="node9" class="node">
<title>i</title>
<path fill="#e1f4e8" stroke="#24445c" d="M404,-36C404,-36 225,-36 225,-36 219,-36 213,-30 213,-24 213,-24 213,-12 213,-12 213,-6 219,0 225,0 225,0 404,0 404,0 410,0 416,-6 416,-12 416,-12 416,-24 416,-24 416,-30 410,-36 404,-36"/>
<text text-anchor="middle" x="314.5" y="-15.5" font-family="Arial" font-size="10.00">9. Looker Studio / BigQuery ML / Vertex AI</text>
</g>
<!-- h&#45;&gt;i -->
<g id="edge9" class="edge">
<title>h&#45;&gt;i</title>
<path fill="none" stroke="#53758c" stroke-width="1.3" d="M314.5,-67.66C314.5,-60.29 314.5,-51.57 314.5,-43.55"/>
<polygon fill="#53758c" stroke="#53758c" stroke-width="1.3" points="316.95,-43.45 314.5,-36.45 312.05,-43.45 316.95,-43.45"/>
</g>
</g>
</svg>
